<?xml version="1.0" standalone="no"?>
<!DOCTYPE svg PUBLIC "-//W3C//DTD SVG 20010904//EN"
 "http://www.w3.org/TR/2001/REC-SVG-20010904/DTD/svg10.dtd">
<svg version="1.0" xmlns="http://www.w3.org/2000/svg"
 width="512.000000pt" height="512.000000pt" viewBox="0 0 512.000000 512.000000"
 preserveAspectRatio="xMidYMid meet">
<metadata>
Created by potrace 1.14, written by Peter Selinger 2001-2017
</metadata>
<g transform="translate(0.000000,512.000000) scale(0.100000,-0.100000)"
fill="#000000" stroke="none">
<path d="M2163 5100 c-38 -23 -55 -70 -40 -113 5 -15 51 -72 102 -125 52 -53
90 -100 87 -104 -4 -3 -29 -9 -57 -12 -222 -26 -419 -85 -640 -191 -480 -231
-875 -659 -1088 -1180 -45 -108 -110 -311 -120 -370 -3 -16 -12 -68 -20 -115
-9 -47 -19 -103 -22 -125 -11 -71 -14 -408 -5 -480 22 -164 27 -197 36 -227 3
-9 6 -25 8 -35 30 -155 144 -433 246 -598 38 -61 126 -183 185 -255 11 -13 63
-67 115 -120 230 -233 536 -431 885 -570 125 -50 183 -39 206 39 9 32 9 44 -5
73 -16 32 -29 40 -134 83 -920 372 -1411 1107 -1338 2003 4 51 9 103 11 115 3
12 10 51 16 87 17 94 75 291 116 395 76 192 202 408 330 565 63 78 223 236
303 299 147 117 194 146 365 231 166 82 303 127 488 160 l98 18 -23 -26 c-13
-14 -42 -47 -65 -72 -70 -76 -84 -98 -85 -133 -2 -62 59 -116 119 -103 33 8
59 31 168 152 44 48 98 106 119 128 119 123 143 170 113 223 -7 11 -76 88
-153 170 -78 81 -154 162 -170 179 -55 58 -96 68 -151 34z"/>
<path d="M3129 4619 c-21 -23 -29 -41 -29 -68 0 -62 29 -84 170 -131 669 -221
1136 -784 1265 -1525 40 -232 38 -513 -5 -725 -6 -25 -12 -57 -14 -71 -15 -91
-84 -294 -143 -418 -125 -263 -299 -479 -551 -683 -95 -77 -291 -190 -437
-253 -83 -36 -269 -101 -310 -109 -11 -3 -60 -14 -108 -25 -128 -31 -130 -29
-61 42 85 87 104 115 104 153 0 40 -40 90 -79 99 -36 8 -80 -10 -109 -43 -13
-15 -47 -52 -76 -82 -246 -259 -278 -303 -262 -362 3 -13 44 -63 91 -113 47
-50 125 -132 173 -183 115 -123 148 -140 211 -108 31 17 51 54 51 97 0 31 -16
51 -147 189 -34 35 -61 65 -60 67 1 1 61 13 132 28 418 84 779 248 1065 483
68 56 251 239 305 306 73 90 182 264 243 389 53 109 133 320 146 387 3 14 12
53 20 86 38 153 51 289 51 509 -1 196 -7 267 -36 421 -140 737 -604 1322
-1264 1591 -122 50 -231 83 -275 83 -23 0 -40 -9 -61 -31z"/>
<path d="M2615 3693 c-90 -17 -169 -39 -214 -60 -192 -84 -342 -255 -407 -462
-24 -74 -29 -243 -10 -331 18 -87 79 -217 130 -276 l34 -40 -144 -255 c-79
-140 -151 -265 -159 -279 -8 -14 -45 -78 -81 -143 l-66 -117 16 -53 c8 -28 26
-94 40 -146 14 -52 28 -97 33 -101 7 -7 291 65 302 75 1 2 -11 56 -27 119
l-30 116 36 9 c21 6 73 19 117 31 44 11 85 22 91 25 10 3 -17 129 -50 233 -5
15 -3 24 6 26 11 4 139 14 188 16 13 0 17 17 19 88 3 81 7 155 10 159 0 1 16
-3 34 -8 77 -24 244 -32 327 -16 292 54 520 265 590 545 39 155 11 357 -69
496 -98 171 -275 297 -480 342 -33 7 -209 13 -236 7z m249 -493 c27 -26 31
-38 31 -83 0 -62 -23 -99 -75 -120 -134 -55 -240 118 -132 216 48 44 126 38
176 -13z"/>
</g>
</svg>
